MoBL_ARMS_shoulder_elvation_states	
version=1	
nRows=210	
nColumns=2	
inDegrees=yes	
	
# SIMM Motion File Header:	
name MoBL_ARMS_shoulder_elvation_states	
datacolumns 2	
datarows 210	
otherdata 1	
range 1.248863217 1.698371633	
endheader	
time	shoulder_elv
1.248863217	25.19832167
1.251301436	25.28131679
1.253739655	25.3626977
1.255584726	25.42319925
1.257429796	25.48277458
1.259864588	25.55996331
1.26229938	25.63552949
1.264144644	25.69170965
1.265989908	25.74695632
1.268421437	25.81831987
1.270852966	25.88805347
1.272698426	25.93988278
1.274543885	25.99077195
1.276972328	26.05629455
1.279400772	26.12018067
1.281246413	26.16763201
1.283092054	26.21413719
1.285517622	26.27380636
1.28794319	26.33183339
1.289789001	26.37488248
1.291634812	26.41698002
1.294057726	26.47078568
1.29648064	26.52294433
1.298326612	26.56156969
1.300172584	26.59923874
1.302593079	26.64717308
1.305013573	26.69345629
1.306859695	26.72763909
1.308705818	26.76086142
1.311124145	26.80291871
1.313542473	26.8433215
1.315388734	26.87304556
1.317234996	26.90180562
1.319651421	26.93798193
1.322067846	26.97250104
1.323914237	26.99775283
1.325760627	27.02203771
1.328175424	27.05233067
1.330590222	27.08096442
1.332436732	27.101733
1.334283242	27.12153236
1.336696695	27.14594103
1.339110149	27.16868912
1.340956769	27.18496611
1.342803388	27.20027219
1.345215791	27.21879688
1.347628194	27.23566024
1.349474912	27.24743983
1.351321631	27.25824741
1.353733282	27.27088957
1.356144933	27.28187027
1.35799174	27.28914916
1.359838548	27.29545556
1.36224975	27.30221767
1.364660952	27.3073188
1.366507837	27.31009621
1.368354723	27.31190126
1.370765783	27.3127868
1.373176842	27.3120124
1.375023797	27.31029007
1.376870751	27.30759608
1.379281972	27.30260933
1.381693193	27.29596421
1.383540201	27.28974619
1.385387209	27.28255781
1.387798902	27.27170377
1.390210595	27.25919353
1.392057645	27.24848637
1.393904695	27.23681074
1.396317162	27.22009541
1.39872963	27.20172662
1.40057671	27.18653938
1.40242379	27.17038618
1.404837327	27.14781661
1.407250864	27.12359695
1.409097963	27.10394124
1.410945062	27.08332268
1.413359955	27.0549071
1.415774849	27.02484544
1.417621957	27.00073539
1.419469064	26.9756662
1.421885588	26.94141422
1.424302112	26.90552082
1.426149222	26.87697308
1.427996332	26.8474705
1.430414742	26.80739334
1.432833152	26.76568013
1.434680263	26.7327138
1.436527373	26.69879756
1.438947904	26.65290836
1.441368435	26.60538919
1.443215551	26.56802582
1.445062666	26.52971805
1.447485528	26.4780322
1.44990839	26.42472327
1.451755523	26.38298676
1.453602656	26.34031193
1.45602803	26.2828475
1.458453404	26.22376767
1.460300577	26.17768418
1.46214775	26.13066905
1.464575786	26.06744716
1.467003821	26.00261847
1.46885107	25.95221632
1.470698319	25.90088976
1.473129133	25.83193505
1.475559947	25.76138308
1.477407319	25.70669264
1.479254692	25.65108561
1.481688372	25.5764265
1.484122051	25.50018064
1.485969607	25.44123435
1.487817162	25.38137981
1.490253772	25.30104863
1.492690382	25.21914228
1.494538189	25.1559746
1.496385997	25.09190757
1.498825589	25.00594049
1.50126518	24.9184109
1.503113311	24.85105857
1.504961441	24.78281636
1.507404072	24.69125293
1.509846702	24.59814073
1.511695218	24.5266432
1.513543735	24.45426581
1.515989481	24.35714835
1.518435228	24.25849697
1.52028419	24.18289626
1.522133153	24.1064263
1.524582124	24.00379939
1.527031095	23.89965449
1.528880543	23.81999598
1.530729992	23.73947947
1.533182317	23.63139015
1.535634642	23.52179983
1.537484685	23.4381286
1.539334728	23.35361116
1.54179073	23.24010077
1.544246733	23.12510727
1.546096979	23.03749422
1.547947225	22.9490478
1.550405846	22.83022746
1.552864467	22.70994447
1.554719853	22.61820299
1.556575238	22.5256373
1.559041241	22.40132969
1.561507243	22.27557575
1.563349193	22.18069962
1.565191142	22.0850256
1.567674405	21.95477544
1.570157668	21.82308515
1.57200429	21.72422118
1.573850913	21.62457035
1.576333421	21.48936284
1.578815929	21.3527441
1.580665229	21.25005362
1.582514528	21.1465899
1.584999498	21.00634275
1.587484468	20.86471101
1.589335823	20.75829093
1.591187178	20.65111258
1.59367775	20.50573137
1.596168322	20.35899032
1.598027344	20.24857181
1.599886366	20.13740647
1.602377674	19.98725971
1.604868982	19.83578504
1.606723493	19.72216501
1.608578003	19.60782043
1.611083809	19.45216656
1.613589615	19.29520382
1.615453326	19.17761176
1.617317038	19.05930761
1.619807052	18.90013507
1.622297066	18.73970594
1.624177512	18.61771709
1.626057958	18.49502409
1.628545258	18.33165372
1.631032558	18.16706721
1.632891107	18.0432908
1.634749656	17.9188481
1.637248064	17.75051218
1.639746472	17.58098866
1.641654477	17.45072573
1.643562483	17.31978392
1.646023854	17.14986357
1.648485226	16.97883144
1.650418392	16.843723
1.652351558	16.70794321
1.654838341	16.53229281
1.657015006	16.37765097
1.65919167	16.22217458
1.661368335	16.06588023
1.663545	15.90876879
1.665721664	15.75085714
1.667898329	15.59214573
1.670074993	15.43265252
1.672251658	15.2723778
1.674428323	15.11133947
1.676604987	14.9495385
1.678781652	14.78699279
1.680958317	14.623704
1.683134981	14.45968971
1.685311646	14.29495183
1.68748831	14.12950867
1.689664975	13.96336234
1.69184164	13.79653059
1.694018304	13.62901692
1.696194969	13.4608386
1.698371633	13.29199977
